<?xml version="1.0" encoding="utf-8"?>
<!-- Generator: Adobe Illustrator 16.0.3, SVG Export Plug-In . SVG Version: 6.00 Build 0)  -->
<!DOCTYPE svg PUBLIC "-//W3C//DTD SVG 1.1//EN" "http://www.w3.org/Graphics/SVG/1.1/DTD/svg11.dtd">
<svg version="1.1"
	 id="Layer_2" xmlns:dc="http://purl.org/dc/elements/1.1/" xmlns:cc="http://creativecommons.org/ns#" xmlns:rdf="http://www.w3.org/1999/02/22-rdf-syntax-ns#" xmlns:svg="http://www.w3.org/2000/svg" xmlns:sodipodi="http://sodipodi.sourceforge.net/DTD/sodipodi-0.dtd" xmlns:inkscape="http://www.inkscape.org/namespaces/inkscape" sodipodi:docname="International_Morse_Code.svg" inkscape:version="0.48.2 r9819"
	 xmlns="http://www.w3.org/2000/svg" xmlns:xlink="http://www.w3.org/1999/xlink" x="0px" y="0px" width="450px" height="580px"
	 viewBox="0 0 450 580" enable-background="new 0 0 450 580" xml:space="preserve">
<sodipodi:namedview  inkscape:cy="302.09746" inkscape:cx="234.2161" inkscape:zoom="1" showgrid="false" guidetolerance="10" gridtolerance="10" pagecolor="#ffffff" borderopacity="1" bordercolor="#666666" objecttolerance="10" id="namedview3373" inkscape:current-layer="g2643" inkscape:window-maximized="0" inkscape:window-y="94" inkscape:window-x="341" inkscape:window-height="866" inkscape:pageshadow="2" inkscape:pageopacity="0" inkscape:window-width="929">
	</sodipodi:namedview>
<g id="g2643">
	<text id="text2872" transform="matrix(1 0 0 1 125.0376 29.6602)" font-family="'HelveticaTextbookLT-Bold'" font-size="23.8685">Como interpretar</text>
	<text transform="matrix(1 0 0 1 58.6426 60)" font-family="'HelveticaTextbookLT-Bold'" font-size="10.8493"> </text>
	<text transform="matrix(1 0 0 1 40.9116 55.3271)" font-family="'HelveticaTextbookLT-Bold'" font-size="15">1. Um sinal curto representa um ponto.</text>
	<text transform="matrix(1 0 0 1 40.9116 75.0771)" font-family="'HelveticaTextbookLT-Bold'" font-size="15">2. Um sinal longo representa um traço.</text>
	<text transform="matrix(1 0 0 1 40.9116 95.8271)" font-family="'HelveticaTextbookLT-Bold'" font-size="15">3. Existe um intervalo entre as letras.</text>
	<text transform="matrix(1 0 0 1 40.9116 115.5771)" enable-background="new    "><tspan x="0" y="0" font-family="'HelveticaTextbookLT-Bold'" font-size="15">4. Existe um longo intervalo até as</tspan><tspan x="0" y="18" font-family="'HelveticaTextbookLT-Bold'" font-size="15">    palavras se repetirem.</tspan></text>
</g>
<g>
	<g id="g3132" transform="translate(-18.434315,0)">
		<circle id="circle3554" cx="273.1" cy="168.004" r="5"/>
		<rect id="rect3556" x="308.11" y="163" width="30" height="10"/>
		<circle id="circle3558" cx="293.1" cy="168.004" r="5"/>
		<circle id="circle3560" cx="273.1" cy="188.004" r="5"/>
		<circle id="circle3562" cx="293.1" cy="188.004" r="5"/>
		<circle id="circle3564" cx="313.1" cy="188.004" r="5"/>
		<rect id="rect3566" x="328.11" y="183" width="30" height="10"/>
		<circle id="circle3568" cx="273.1" cy="208.004" r="5"/>
		<rect id="rect3570" x="288.11" y="203" width="30" height="10"/>
		<rect id="rect3572" x="328.11" y="203" width="30" height="10"/>
		<rect id="rect3574" x="268.11" y="223" width="30" height="10"/>
		<circle id="circle3576" cx="313.1" cy="228.004" r="5"/>
		<circle id="circle3578" cx="333.1" cy="228.004" r="5"/>
		<rect id="rect3580" x="348.11" y="223" width="30" height="10"/>
		<rect id="rect3588" x="268.11" y="243" width="30" height="10"/>
		<rect id="rect3590" x="328.11" y="243" width="30" height="10"/>
		<rect id="rect3592" x="368.11" y="243" width="30" height="10"/>
		<circle id="circle3594" cx="313.1" cy="248.004" r="5"/>
		<rect id="rect3596" x="268.11" y="263" width="30" height="10"/>
		<rect id="rect3598" x="308.11" y="263" width="30" height="10"/>
		<circle id="circle3600" cx="353.1" cy="268.004" r="5"/>
		<circle id="circle3602" cx="373.1" cy="268.004" r="5"/>
		<g id="g2615" transform="translate(-1.8497366,0)">
			<text id="text3604" transform="matrix(1 0 0 1 248.8173 173)" font-family="'HelveticaTextbookLT-Bold'" font-size="19.5288">U</text>
			<text id="text3608" transform="matrix(1 0 0 1 249.3837 193)" font-family="'HelveticaTextbookLT-Bold'" font-size="19.5288">V</text>
			
				<text id="text3612" transform="matrix(1 0 0 1 246.5712 212.7559)" font-family="'HelveticaTextbookLT-Bold'" font-size="19.5288">W</text>
			<text id="text3616" transform="matrix(1 0 0 1 249.3691 233)" font-family="'HelveticaTextbookLT-Bold'" font-size="19.5288">X</text>
			<text id="text3620" transform="matrix(1 0 0 1 249.3984 253)" font-family="'HelveticaTextbookLT-Bold'" font-size="19.5288">Y</text>
			<text id="text3624" transform="matrix(1 0 0 1 249.9599 273)" font-family="'HelveticaTextbookLT-Bold'" font-size="19.5288">Z</text>
		</g>
	</g>
	<g id="g3169">
		<circle id="circle2870" cx="44.666" cy="168.004" r="5"/>
		<rect id="rect3010" x="59.676" y="163" width="30" height="10"/>
		<circle id="circle3324" cx="84.922" cy="188.004" r="5"/>
		<circle id="circle3326" cx="104.666" cy="188.324" r="5"/>
		<circle id="circle3328" cx="124.66" cy="188.004" r="5"/>
		<rect id="rect3330" x="39.676" y="203" width="30" height="10"/>
		<circle id="circle3332" cx="84.635" cy="208.004" r="5"/>
		<rect id="rect3334" x="99.676" y="203" width="30" height="10"/>
		<circle id="circle3336" cx="144.732" cy="208.004" r="5"/>
		<rect id="rect3338" x="39.676" y="223" width="30" height="10"/>
		<circle id="circle3340" cx="84.57" cy="228.004" r="5"/>
		<circle id="circle3342" cx="104.666" cy="228.197" r="5"/>
		<circle id="circle3412" cx="44.666" cy="248.004" r="5"/>
		<circle id="circle3414" cx="44.666" cy="268.004" r="5"/>
		<circle id="circle3416" cx="64.666" cy="268.004" r="5"/>
		<rect id="rect3420" x="79.676" y="263" width="30" height="10"/>
		<circle id="circle3422" cx="124.666" cy="268.004" r="5"/>
		<rect id="rect3424" x="39.676" y="283" width="30" height="10"/>
		<rect id="rect3426" x="79.676" y="283" width="30" height="10"/>
		<circle id="circle3428" cx="124.666" cy="288.004" r="5"/>
		<circle id="circle3458" cx="44.666" cy="308.004" r="5"/>
		<circle id="circle3460" cx="64.666" cy="308.004" r="5"/>
		<circle id="circle3462" cx="84.666" cy="308.004" r="5"/>
		<circle id="circle3464" cx="104.666" cy="308.004" r="5"/>
		<circle id="circle3466" cx="44.666" cy="328.004" r="5"/>
		<circle id="circle3468" cx="64.666" cy="328.004" r="5"/>
		<circle id="circle3470" cx="44.666" cy="348.004" r="5"/>
		<rect id="rect3472" x="59.676" y="343" width="30" height="10"/>
		<rect id="rect3474" x="99.676" y="343" width="30" height="10"/>
		<rect id="rect3476" x="139.676" y="343" width="30" height="10"/>
		<rect id="rect3478" x="39.676" y="363" width="30" height="10"/>
		<circle id="circle3480" cx="84.666" cy="368.004" r="5"/>
		<rect id="rect3482" x="99.676" y="363" width="30" height="10"/>
		<circle id="circle3484" cx="44.666" cy="388.004" r="5"/>
		<rect id="rect3486" x="59.676" y="383" width="30" height="10"/>
		<circle id="circle3488" cx="104.666" cy="388.004" r="5"/>
		<circle id="circle3490" cx="124.666" cy="388.004" r="5"/>
		<rect id="rect3492" x="39.676" y="403" width="30" height="10"/>
		<rect id="rect3494" x="79.676" y="403" width="30" height="10"/>
		<rect id="rect3496" x="39.676" y="423" width="30" height="10"/>
		<circle id="circle3498" cx="84.666" cy="428.004" r="5"/>
		<rect id="rect3500" x="39.676" y="443" width="30" height="10"/>
		<rect id="rect3502" x="79.676" y="443" width="30" height="10"/>
		<rect id="rect3504" x="119.676" y="443" width="30" height="10"/>
		<circle id="circle3506" cx="44.666" cy="468.004" r="5"/>
		<rect id="rect3508" x="59.676" y="463" width="30" height="10"/>
		<rect id="rect3510" x="99.676" y="463" width="30" height="10"/>
		<circle id="circle3512" cx="144.666" cy="468.004" r="5"/>
		<rect id="rect3514" x="39.676" y="483" width="30" height="10"/>
		<rect id="rect3516" x="79.676" y="483" width="30" height="10"/>
		<circle id="circle3518" cx="124.666" cy="488.004" r="5"/>
		<rect id="rect3520" x="139.676" y="483" width="30" height="10"/>
		<circle id="circle3522" cx="44.666" cy="508.004" r="5"/>
		<rect id="rect3524" x="59.676" y="503" width="30" height="10"/>
		<circle id="circle3526" cx="104.666" cy="508.004" r="5"/>
		<circle id="circle3528" cx="84.666" cy="528.004" r="5"/>
		<circle id="circle3530" cx="64.666" cy="528.004" r="5"/>
		<circle id="circle3532" cx="44.666" cy="528.004" r="5"/>
		<rect id="rect3534" x="39.676" y="543" width="30" height="10"/>
		<g id="g2573">
			<text id="text3309" transform="matrix(1 0 0 1 18.2696 173)" font-family="'HelveticaTextbookLT-Bold'" font-size="19.5288">A</text>
			<text id="text3344" transform="matrix(1 0 0 1 18.0694 193)" font-family="'HelveticaTextbookLT-Bold'" font-size="19.5288">B</text>
			
				<text id="text3350" transform="matrix(1 0 0 1 17.6153 212.7559)" font-family="'HelveticaTextbookLT-Bold'" font-size="19.5288">C</text>
			<text id="text3356" transform="matrix(1 0 0 1 17.4786 233)" font-family="'HelveticaTextbookLT-Bold'" font-size="19.5288">D</text>
			<text id="text3360" transform="matrix(1 0 0 1 18.0157 253)" font-family="'HelveticaTextbookLT-Bold'" font-size="19.5288">E</text>
			<text id="text3364" transform="matrix(1 0 0 1 18.4698 273)" font-family="'HelveticaTextbookLT-Bold'" font-size="19.5288">F</text>
			<text id="text3368" transform="matrix(1 0 0 1 17.254 292.7559)" font-family="'HelveticaTextbookLT-Bold'" font-size="19.5288">G</text>
			<text id="text3372" transform="matrix(1 0 0 1 17.7227 313)" font-family="'HelveticaTextbookLT-Bold'" font-size="19.5288">H</text>
			<text id="text3376" transform="matrix(1 0 0 1 22.127 333)" font-family="'HelveticaTextbookLT-Bold'" font-size="19.5288">I</text>
			<text id="text3380" transform="matrix(1 0 0 1 20.4473 353)" font-family="'HelveticaTextbookLT-Bold'" font-size="19.5288">J</text>
			<text id="text3384" transform="matrix(1 0 0 1 17.5567 373)" font-family="'HelveticaTextbookLT-Bold'" font-size="19.5288">K</text>
			<text id="text3388" transform="matrix(1 0 0 1 19.002 393)" font-family="'HelveticaTextbookLT-Bold'" font-size="19.5288">L</text>
			<text id="text3392" transform="matrix(1 0 0 1 16.6241 413)" font-family="'HelveticaTextbookLT-Bold'" font-size="19.5288">M</text>
			<text id="text3396" transform="matrix(1 0 0 1 17.7764 433)" font-family="'HelveticaTextbookLT-Bold'" font-size="19.5288">N</text>
			<text id="text3400" transform="matrix(1 0 0 1 17.127 453)" font-family="'HelveticaTextbookLT-Bold'" font-size="19.5288">O</text>
			<text id="text3404" transform="matrix(1 0 0 1 17.0977 493)" font-family="'HelveticaTextbookLT-Bold'" font-size="19.5288">Q</text>
			<text id="text3408" transform="matrix(1 0 0 1 17.9327 473)" font-family="'HelveticaTextbookLT-Bold'" font-size="19.5288">P</text>
			<text id="text3536" transform="matrix(1 0 0 1 17.0587 513)" font-family="'HelveticaTextbookLT-Bold'" font-size="19.5288">R</text>
			<text id="text3540" transform="matrix(1 0 0 1 18.3428 533)" font-family="'HelveticaTextbookLT-Bold'" font-size="19.5288">S</text>
			<text id="text3544" transform="matrix(1 0 0 1 18.797 553)" font-family="'HelveticaTextbookLT-Bold'" font-size="19.5288">T</text>
		</g>
		<g id="use2703" transform="translate(-18.43431,18.434311)">
			<rect id="rect3010_1_" x="39.676" y="183" width="30" height="10"/>
		</g>
	</g>
	<g>
		<g id="use2707" transform="translate(211.99458,119.82302)">
			<rect id="rect3010_2_" x="288.11" y="298.461" width="30" height="10"/>
		</g>
		<g id="use2709" transform="translate(248.8632,119.82301)">
			<rect id="rect3010_3_" x="328.11" y="298.461" width="30" height="10"/>
		</g>
		<g>
			<g id="use2711" transform="translate(248.8632,119.82301)">
				<rect id="rect3010_4_" x="328.11" y="298.461" width="30" height="10"/>
			</g>
			<g id="use2713" transform="translate(285.73182,119.82301)">
				<rect id="rect3010_5_" x="368.11" y="298.461" width="30" height="10"/>
			</g>
			<g id="use2715" transform="translate(322.60045,119.82301)">
				<rect id="rect3010_6_" x="408.11" y="298.461" width="30" height="10"/>
			</g>
			<g id="use2717" transform="translate(211.99458,119.82302)">
				<circle id="circle2870_1_" cx="273.1" cy="303.465" r="5"/>
			</g>
			<g id="use2719" transform="translate(211.99458,138.25733)">
				<circle id="circle2870_2_" cx="273.1" cy="323.465" r="5"/>
			</g>
			<g id="use2721" transform="translate(230.42889,138.25733)">
				<circle id="circle2870_3_" cx="293.1" cy="323.465" r="5"/>
			</g>
			<g id="use2723" transform="translate(230.42889,138.25733)">
				<rect id="rect3010_7_" x="308.11" y="318.461" width="30" height="10"/>
			</g>
			<g id="use2725" transform="translate(267.29751,138.25733)">
				<rect id="rect3010_8_" x="348.11" y="318.461" width="30" height="10"/>
			</g>
			<g id="use2727" transform="translate(304.16613,138.25732)">
				<rect id="rect3010_9_" x="388.11" y="318.461" width="30" height="10"/>
			</g>
			<g id="use2779" transform="translate(211.99458,156.69164)">
				<circle id="circle2870_4_" cx="273.1" cy="343.465" r="5"/>
			</g>
			<g>
				<g id="use2781" transform="translate(18.434309,4.0522843e-6)">
					<circle id="circle2870_5_" cx="293.1" cy="343.465" r="5"/>
				</g>
				<g>
					<g>
						<g id="use2783" transform="translate(18.434311,0)">
							<circle id="circle2870_6_" cx="313.1" cy="343.465" r="5"/>
						</g>
						<g>
							<g id="use2785" transform="translate(18.434309,18.434308)">
								<rect id="rect3010_10_" x="328.11" y="338.461" width="30" height="10"/>
							</g>
							<g>
								<g>
									<g id="use2787" transform="translate(36.868622,9.8155382e-8)">
										<rect id="rect3010_11_" x="368.11" y="338.461" width="30" height="10"/>
									</g>
									<g>
										<g id="use2789" transform="translate(2.324722e-7,18.434311)">
											<circle id="circle2870_7_" cx="273.1" cy="363.465" r="5"/>
										</g>
										<g>
											<g>
												<g id="use2791" transform="translate(18.434311,7.8636818e-8)">
													<circle id="circle2870_8_" cx="293.1" cy="363.465" r="5"/>
												</g>
												<g>
													<g>
														<g>
															<g id="use2793" transform="translate(18.434311,0)">
																<circle id="circle2870_9_" cx="313.1" cy="363.465" r="5"/>
															</g>
															<g>
																<g>
																	<g>
																		<g>
																			<g id="use2795" transform="translate(18.434311,0)">
																				<circle id="circle2870_10_" cx="333.1" cy="363.465" r="5"/>
																			</g>
																			<g>
																				<g>
																					<g id="use2797" transform="translate(18.434313,18.434307)">
																						<rect id="rect3010_12_" x="348.11" y="358.461" width="30" height="10"/>
																					</g>
																					<g>
																						<g>
																							<g id="use2799" transform="translate(-2.3247221e-7,18.434311)">
																								<circle id="circle2870_11_" cx="273.1" cy="383.465" r="5"/>
																							</g>
																							<g>
																								<g>
																									<g>
																										<g id="use2801" transform="translate(18.434311,-4.2724257e-8)">
																											<circle id="circle2870_12_" cx="293.1" cy="383.465" r="5"/>
																										</g>
																										<g>
																											<g id="g3051" transform="translate(-18.434314,64.295099)">
																												<g id="g3029">
																													<circle id="circle2870_13_" cx="313.1" cy="383.465" r="5"/>
																													<circle id="circle2870_14_" cx="333.1" cy="383.465" r="5"/>
																													<circle id="circle2870_15_" cx="353.1" cy="383.465" r="5"/>
																													<circle id="circle2870_16_" cx="313.1" cy="403.465" r="5"/>
																													<circle id="circle2870_17_" cx="333.1" cy="403.465" r="5"/>
																													<circle id="circle2870_18_" cx="353.1" cy="403.465" r="5"/>
																													<circle id="circle2870_19_" cx="373.1" cy="403.465" r="5"/>
																													<rect id="rect3010_13_" x="268.11" y="398.461" width="30" height="10"/>
																													<circle id="circle2870_20_" cx="273.1" cy="343.465" r="5"/>
																													<circle id="circle2870_21_" cx="293.1" cy="343.465" r="5"/>
																													<circle id="circle2870_22_" cx="313.1" cy="343.465" r="5"/>
																													<rect id="rect3010_14_" x="328.11" y="338.461" width="30" height="10"/>
																													<rect id="rect3010_15_" x="368.11" y="338.461" width="30" height="10"/>
																													<circle id="circle2870_23_" cx="353.1" cy="423.465" r="5"/>
																													<circle id="circle2870_24_" cx="373.1" cy="423.465" r="5"/>
																													<circle id="circle2870_25_" cx="393.1" cy="423.465" r="5"/>
																													<rect id="rect3010_16_" x="268.11" y="418.461" width="30" height="10"/>
																													<rect id="rect3010_17_" x="308.11" y="418.461" width="30" height="10"/>
																													<circle id="circle2870_26_" cx="393.1" cy="443.465" r="5"/>
																													<circle id="circle2870_27_" cx="413.1" cy="443.465" r="5"/>
																													<rect id="rect3010_18_" x="308.11" y="438.461" width="30" height="10"/>
																													<rect id="rect3010_19_" x="348.11" y="438.461" width="30" height="10"/>
																													<rect id="rect3010_20_" x="268.11" y="438.461" width="30" height="10"/>
																													<rect id="rect3010_21_" x="268.11" y="458.461" width="30" height="10"/>
																													<rect id="rect3010_22_" x="308.11" y="458.461" width="30" height="10"/>
																													<rect id="rect3010_23_" x="308.11" y="458.461" width="30" height="10"/>
																													<rect id="rect3010_24_" x="348.11" y="458.461" width="30" height="10"/>
																													<rect id="rect3010_25_" x="388.11" y="458.461" width="30" height="10"/>
																													<rect id="rect3010_26_" x="268.11" y="478.461" width="30" height="10"/>
																													<circle id="circle2870_28_" cx="433.1" cy="463.465" r="5"/>
																													<rect id="rect3010_27_" x="308.11" y="478.461" width="30" height="10"/>
																													<rect id="rect3010_28_" x="348.11" y="478.461" width="30" height="10"/>
																													<rect id="rect3010_29_" x="348.11" y="478.461" width="30" height="10"/>
																													<rect id="rect3010_30_" x="388.11" y="478.461" width="30" height="10"/>
																													<rect id="rect3010_31_" x="428.11" y="478.461" width="30" height="10"/>
																												</g>
																											</g>
																										</g>
																									</g>
																								</g>
																							</g>
																						</g>
																					</g>
																				</g>
																			</g>
																		</g>
																	</g>
																</g>
															</g>
														</g>
													</g>
												</g>
											</g>
										</g>
									</g>
								</g>
							</g>
						</g>
					</g>
				</g>
			</g>
		</g>
	</g>
</g>
</svg>
